# xmcd
#
# Track frame offsets: 
#        150
#        22910
#        38477
#        58600
#        75905
#
# Disc length: 1262 seconds
#
# Revision: 0
# Processed by: cddbd v1.5.2PL0 Copyright (c) Steve Scherf et al.
# Submitted via: ExactAudioCopy v0.99pb3
#
DISCID=2704ec05
DTITLE=Bluestone - Tones In Blue
DYEAR=1997
DGENRE=Blues
TTITLE0=I Stepped In Quicksand
TTITLE1=I'm On My Way To Atlanta
TTITLE2=Blues At Sunrise
TTITLE3=Telephone Blues
TTITLE4=Take A Little Walk With Me
EXTD=
EXTT0=
EXTT1=
EXTT2=
EXTT3=
EXTT4=
PLAYORDER=
